<svg width="64" height="64" viewBox="0 0 64 64" fill="none" xmlns="http://www.w3.org/2000/svg">
  <circle cx="32" cy="32" r="32" fill="#1a1a2e"/>
  <path d="M16 42 C 18 26, 28 14, 44 16" stroke="#FFD700" stroke-width="7" stroke-linecap="round" fill="none"/>
  <path d="M18 40 C 20 27, 29 17, 43 18" stroke="#FFE94D" stroke-width="2.5" stroke-linecap="round" fill="none" opacity="0.6"/>
  <path d="M44 16 C 46 14, 48 13, 49 15 C 50 17, 48 20, 46 20" stroke="#FFD700" stroke-width="4" stroke-linecap="round" fill="none"/>
  <path d="M44 16 C 43 12, 41 10, 42 8" stroke="#5a3e1b" stroke-width="3.5" stroke-linecap="round" fill="none"/>
  <path d="M16 42 C 14 44, 13 47, 15 48 C 17 49, 19 47, 19 45" stroke="#FFD700" stroke-width="4" stroke-linecap="round" fill="none"/>
  <circle cx="23" cy="34" r="1.5" fill="#FFE94D" opacity="0.5"/>
  <circle cx="29" cy="26" r="1.5" fill="#FFE94D" opacity="0.5"/>
  <circle cx="36" cy="20" r="1.5" fill="#FFE94D" opacity="0.5"/>
</svg>
